<?xml version="1.0" encoding="utf-8"?>
<!-- Generator: Adobe Illustrator 21.0.0, SVG Export Plug-In . SVG Version: 6.00 Build 0)  -->
<svg xmlns="http://www.w3.org/2000/svg" xmlns:xlink="http://www.w3.org/1999/xlink" version="1.1" id="Layer_1" x="0px" y="0px" viewBox="0 0 512 512" style="enable-background:new 0 0 512 512;" xml:space="preserve">
<g>
	<path fill="white" d="M256,0C114.8,0,0,114.8,0,256s114.8,256,256,256s256-114.8,256-256S397.2,0,256,0z M256,39.4   c119.4,0,216.6,97.2,216.6,216.6c0,20.5-3.1,40.3-8.4,59.1h-90v-158L256,280.8L137.8,157.1v158h-90c-5.3-18.8-8.4-38.6-8.4-59.1   C39.4,136.6,136.6,39.4,256,39.4z M177.2,255.4l78.8,82.5l78.8-82.5v99.1h113.9C412.8,424.5,340,472.6,256,472.6   S99.2,424.5,63.3,354.5h113.9V255.4z"/>
</g>
</svg>
